<?xml version="1.0"?>
<svg xmlns="http://www.w3.org/2000/svg" viewBox="0 0 64 64" width="512" height="512"><g id="outline"><path d="M61.484,22.125a1,1,0,0,0-1.014.027L52.713,27H50V25a3,3,0,0,0-3-3h-.7A10.992,10.992,0,1,0,30,8.444,10.992,10.992,0,1,0,13.7,22H13a3,3,0,0,0-3,3v4H7.236L3.447,27.105A1,1,0,0,0,2,28V38a1,1,0,0,0,1.447.9L7.236,37H10v6a3,3,0,0,0,3,3h3v5H14V50a1,1,0,0,0-1-1H3a1,1,0,0,0-1,1v4a1,1,0,0,0,1,1H13a1,1,0,0,0,1-1V53h3a1,1,0,0,0,1-1V46h3.382l-1.277,2.553A1,1,0,0,0,21,50h2v2.551l-8.664,7.7A1,1,0,0,0,15,62h6a1,1,0,0,0,.664-.252L29,55.227V61a1,1,0,0,0,1,1h4a1,1,0,0,0,1-1V55.227l7.336,6.521A1,1,0,0,0,43,62h6a1,1,0,0,0,.664-1.748L41,52.551V50h2a1,1,0,0,0,.9-1.447L42.618,46H45a1,1,0,0,0,.707-.293l4-4A1,1,0,0,0,50,41V39h2.713l7.757,4.848A1,1,0,0,0,62,43V23A1,1,0,0,0,61.484,22.125ZM12,53H4V51h8ZM40,4a9,9,0,1,1-9,9A9.01,9.01,0,0,1,40,4ZM33.7,22h-7.39A11.061,11.061,0,0,0,30,17.556,11.061,11.061,0,0,0,33.7,22ZM11,13a9,9,0,1,1,9,9A9.01,9.01,0,0,1,11,13ZM4,29.618l2,1v4.764l-2,1ZM8,35V31h2v4ZM20.62,60H17.63l6.75-6h2.99ZM33,60H31V54h2Zm10.38,0-6.75-6h2.99l6.75,6ZM39,52H25V50H39Zm2.382-4H22.618l1-2H40.382ZM48,40.586,44.586,44H13a1,1,0,0,1-1-1V25a1,1,0,0,1,1-1H47a1,1,0,0,1,1,1ZM50,29h2v8H50ZM60,41.2l-6-3.75V28.554l6-3.75Z"/><rect x="18" y="30" width="2" height="2"/><rect x="18" y="34" width="2" height="2"/><path d="M43,26H15a1,1,0,0,0-1,1V39a1,1,0,0,0,1,1H43a1,1,0,0,0,1-1V27A1,1,0,0,0,43,26Zm-1,2v6H28V28ZM16,38V28H26v7a1,1,0,0,0,1,1H42v2Z"/><rect x="30" y="30" width="10" height="2"/><path d="M20,6a7,7,0,1,0,7,7A7.008,7.008,0,0,0,20,6Zm0,12a5,5,0,1,1,5-5A5.006,5.006,0,0,1,20,18Z"/><path d="M17,13h2a1,1,0,0,1,1-1V10A3,3,0,0,0,17,13Z"/><path d="M40,12V10a3,3,0,0,0-3,3h2A1,1,0,0,1,40,12Z"/><path d="M40,20a7,7,0,1,0-7-7A7.008,7.008,0,0,0,40,20ZM40,8a5,5,0,1,1-5,5A5.006,5.006,0,0,1,40,8Z"/></g></svg>
